<svg xmlns="http://www.w3.org/2000/svg" viewBox="0 0 174.13 169.92"><defs><style>.cls-1{fill:#fff;}.cls-2{fill:none;stroke:#fff;stroke-miterlimit:10;stroke-width:3.49px;}</style></defs><title>Asset 2</title><g id="Layer_2" data-name="Layer 2"><g id="Objects"><polygon class="cls-1" points="9.72 160.61 9.72 0 6.18 0 6.18 160.61 6.18 164.15 9.72 164.15 170.33 164.15 170.33 160.61 9.72 160.61"/><rect class="cls-1" x="22.42" y="160.74" width="3.55" height="9.18"/><rect class="cls-1" x="65.13" y="160.74" width="3.54" height="9.18"/><rect class="cls-1" x="107.83" y="160.74" width="3.54" height="9.18"/><rect class="cls-1" x="150.54" y="160.74" width="3.54" height="9.18"/><rect class="cls-1" y="16.25" width="9.18" height="3.55"/><rect class="cls-1" y="58.95" width="9.18" height="3.54"/><rect class="cls-1" y="101.66" width="9.18" height="3.54"/><rect class="cls-1" y="144.36" width="9.18" height="3.54"/><path class="cls-1" d="M143.05,122.35a7.54,7.54,0,1,1-7.54,7.54,7.55,7.55,0,0,1,7.54-7.54m0-3.49a11,11,0,1,0,11,11,11,11,0,0,0-11-11Z"/><path class="cls-1" d="M65.13,113a7.54,7.54,0,1,1-7.54,7.54A7.55,7.55,0,0,1,65.13,113m0-3.49a11,11,0,1,0,11,11,11,11,0,0,0-11-11Z"/><path class="cls-1" d="M68.67,66.46A7.54,7.54,0,1,1,61.13,74a7.55,7.55,0,0,1,7.54-7.54m0-3.49a11,11,0,1,0,11,11,11,11,0,0,0-11-11Z"/><path class="cls-1" d="M125.71,66.46A7.54,7.54,0,1,1,118.17,74a7.55,7.55,0,0,1,7.54-7.54m0-3.49a11,11,0,1,0,11,11,11,11,0,0,0-11-11Z"/><path class="cls-1" d="M98.58,32.77A7.54,7.54,0,1,1,91,40.31a7.55,7.55,0,0,1,7.54-7.54m0-3.49a11,11,0,1,0,11,11,11,11,0,0,0-11-11Z"/><path class="cls-1" d="M35.23,37.49A7.54,7.54,0,1,1,27.69,45a7.55,7.55,0,0,1,7.54-7.54m0-3.49a11,11,0,1,0,11,11,11,11,0,0,0-11-11Z"/><path class="cls-1" d="M35.23,90.76a7.54,7.54,0,1,1-7.54,7.54,7.55,7.55,0,0,1,7.54-7.54m0-3.49a11,11,0,1,0,11,11,11,11,0,0,0-11-11Z"/><path class="cls-1" d="M100.35,94a7.54,7.54,0,1,1-7.54,7.54A7.55,7.55,0,0,1,100.35,94m0-3.49a11,11,0,1,0,11,11,11,11,0,0,0-11-11Z"/><line class="cls-2" x1="7.95" y1="58.95" x2="25.97" y2="45.03"/><line class="cls-2" x1="42.92" y1="51.34" x2="59.84" y2="67.41"/><line class="cls-2" x1="74.61" y1="67.41" x2="91.98" y2="46.33"/><line class="cls-2" x1="105.36" y1="46.33" x2="118.98" y2="65.27"/><line class="cls-2" x1="133.29" y1="67.41" x2="169.51" y2="20.82"/><polygon class="cls-1" points="172.7 25.23 174.13 14.88 164.45 18.82 172.7 25.23"/><line class="cls-2" x1="7.95" y1="103.43" x2="25.97" y2="98.3"/><line class="cls-2" x1="41.98" y1="103.43" x2="56.54" y2="115.34"/><line class="cls-2" x1="72.96" y1="116.75" x2="91.98" y2="105.2"/><line class="cls-2" x1="107.83" y1="106.19" x2="133.29" y2="125.9"/><line class="cls-2" x1="152.31" y1="124.96" x2="164.39" y2="115.58"/><polygon class="cls-1" points="166.39 120.64 170.33 110.97 159.98 112.4 166.39 120.64"/></g></g></svg>