<svg xmlns="http://www.w3.org/2000/svg" viewBox="0 0 542.58 549.72"><defs><style>.cls-1{fill:none;}.cls-2{fill:#ededed;}.cls-3{fill:#ddd;}.cls-4{fill:#fff;}.cls-5{fill:#b7b7b7;}</style></defs><title>Asset 1</title><g id="Layer_2" data-name="Layer 2"><g id="Object"><path class="cls-1" d="M67,214.69A151.72,151.72,0,1,0,219.85,64.09,151.72,151.72,0,0,0,67,214.69Zm151.22,131A129.61,129.61,0,0,1,89.56,215.12C90.1,143.54,143.4,85.9,215,86.43c.87,0,1.73.07,2.61.09l-1,129.54,116.15,62.61C315.31,316.77,268.41,346.07,218.22,345.69Zm40.63-126.19-10.78-5.88,8.8-27.36,18.82-19Zm22.41-57.92,18.82-19-27.26,84.59L262,221.24Zm-36.38,50.29-8.65-4.71,15.08-15.26ZM350,209.71c-.13,18.94-3.5,37.42-11.74,53.11l-6.34-3.46,18-55.73C350,205.65,350,207.67,350,209.71Zm-1-15.09-20.3,63L318,251.74,343.67,172A115.92,115.92,0,0,1,349,194.62Zm-7.4-28.08L314.77,250,304,244.11,334,150.84A120.9,120.9,0,0,1,341.64,166.54Zm-10.07-19.78-30.79,95.61L290,236.49l32.82-101.93A119.75,119.75,0,0,1,331.57,146.77Zm-15.81-20.1c1.49,1.51,2.92,3.09,4.34,4.7L286.81,234.75,276,228.87l29.63-92ZM234,87.26c27.41.75,53.29,11.8,70.57,28l-72,73.06Z"/><path class="cls-2" d="M524.22,476l-2.27-2.31-55.79,55L467.5,530l14.55,14.78c9.37,9.49,29.42,4.87,44.83-10.29s20.3-35.17,11-44.65L524.22,476Z"/><polygon class="cls-3" points="508.49 460.29 452.71 515.21 466.16 528.67 521.95 473.72 520.37 472.12 520.34 472.13 508.49 460.29"/><path class="cls-4" d="M217.38,0C98.22-.88.9,95,0,214.19S95,430.67,214.18,431.56a214.58,214.58,0,0,0,119.65-35.18L452.71,515.21l55.78-54.92-118.08-118A214.58,214.58,0,0,0,431.56,217.4C432.46,98.23,336.56.9,217.38,0Zm.21,367.53A151.73,151.73,0,1,1,370.44,217,151.72,151.72,0,0,1,217.59,367.54Z"/><path class="cls-2" d="M304.58,115.29C287.3,99.06,261.41,88,234,87.26l-1.4,101.1Z"/><path class="cls-4" d="M215,86.43C143.4,85.9,90.1,143.54,89.56,215.12A129.61,129.61,0,0,0,218.22,345.69c50.2.37,97.09-28.92,114.57-67L216.63,216.06l1-129.54C216.72,86.5,215.86,86.44,215,86.43Z"/><polygon class="cls-5" points="272.82 227.13 300.08 142.54 281.26 161.59 262.04 221.25 272.82 227.13"/><polygon class="cls-5" points="258.85 219.51 275.69 167.23 256.87 186.27 248.07 213.63 258.85 219.51"/><path class="cls-5" d="M314.77,250l26.87-83.45A120.9,120.9,0,0,0,334,150.84L304,244.11Z"/><path class="cls-5" d="M328.74,257.62l20.3-63A115.92,115.92,0,0,0,343.67,172L318,251.74Z"/><path class="cls-5" d="M338.28,262.81c8.24-15.69,11.61-34.16,11.74-53.11,0-2,0-4.06-.13-6.08l-18,55.73Z"/><path class="cls-5" d="M276,228.87l10.8,5.88,33.29-103.38c-1.42-1.61-2.85-3.19-4.34-4.7L305.65,136.9Z"/><polygon class="cls-5" points="251.3 191.91 236.22 207.17 244.87 211.88 251.3 191.91"/><path class="cls-5" d="M300.78,242.38l30.79-95.61a119.75,119.75,0,0,0-8.75-12.2L290,236.49Z"/></g></g></svg>